<?xml version="1.0" encoding="UTF-8"?>
<!DOCTYPE svg PUBLIC "-//W3C//DTD SVG 1.1//EN" "http://www.w3.org/Graphics/SVG/1.1/DTD/svg11.dtd">
<!-- Creator: CorelDRAW -->
<svg xmlns="http://www.w3.org/2000/svg" xml:space="preserve" width="17px" height="84px" style="shape-rendering:geometricPrecision; text-rendering:geometricPrecision; image-rendering:optimizeQuality; fill-rule:evenodd; clip-rule:evenodd"
viewBox="0 0 16.9917 84.192"
 xmlns:xlink="http://www.w3.org/1999/xlink">
 <defs>
  <style type="text/css">
   <![CDATA[
    .fil2 {fill:#6A7180}
    .fil0 {fill:#EE3643}
    .fil1 {fill:white}
   ]]>
  </style>
 </defs>
 <g id="Слой_x0020_1">
  <metadata id="CorelCorpID_0Corel-Layer"/>
  <path class="fil0" d="M16.9917 82.7791l-3.53865 -3.53865c0.992271,-1.30339 1.53183,-2.90054 1.53183,-4.53922 0,-4.13748 -3.35514,-7.49263 -7.49225,-7.49263 -4.13748,0 -7.49263,3.35514 -7.49263,7.49263 0,4.1371 3.35514,7.49225 7.49263,7.49225 0.00264303,0 0.0064188,0 0.00906183,0 1.70816,0 3.27887,-0.578447 4.5396,-1.54051l3.53751 3.53902 1.41289 -1.41289zm-14.9853 -8.07787c0,-3.03005 2.46444,-5.49449 5.49449,-5.49449 3.02892,0 5.49449,2.46444 5.49449,5.49449 0,3.02892 -2.46557,5.49449 -5.49449,5.49449 -3.03232,-0.00302061 -5.49147,-2.46218 -5.49411,-5.49449l-0.000377576 0z"/>
  <path class="fil1" d="M16.9917 49.1748l-3.53865 -3.53865c0.992271,-1.30339 1.53183,-2.90054 1.53183,-4.53922 0,-4.13748 -3.35514,-7.49263 -7.49225,-7.49263 -4.13748,0 -7.49263,3.35514 -7.49263,7.49263 0,4.1371 3.35514,7.49225 7.49263,7.49225 0.00264303,0 0.0064188,0 0.00906183,0 1.70816,0 3.27887,-0.578447 4.5396,-1.54051l3.53751 3.53902 1.41289 -1.41289zm-14.9853 -8.07787c0,-3.03005 2.46444,-5.49449 5.49449,-5.49449 3.02892,0 5.49449,2.46444 5.49449,5.49449 0,3.02892 -2.46557,5.49449 -5.49449,5.49449 -3.03232,-0.00302061 -5.49147,-2.46218 -5.49411,-5.49449l-0.000377576 0z"/>
  <path class="fil2" d="M16.9917 15.5705l-3.53865 -3.53865c0.992271,-1.30339 1.53183,-2.90054 1.53183,-4.53922 0,-4.13748 -3.35514,-7.49263 -7.49225,-7.49263 -4.13748,0 -7.49263,3.35514 -7.49263,7.49263 0,4.1371 3.35514,7.49225 7.49263,7.49225 0.00264303,0 0.0064188,0 0.00906183,0 1.70816,0 3.27887,-0.578447 4.5396,-1.54051l3.53751 3.53902 1.41289 -1.41289zm-14.9853 -8.07787c0,-3.03005 2.46444,-5.49449 5.49449,-5.49449 3.02892,0 5.49449,2.46444 5.49449,5.49449 0,3.02892 -2.46557,5.49449 -5.49449,5.49449 -3.03232,-0.00302061 -5.49147,-2.46218 -5.49411,-5.49449l-0.000377576 0z"/>
 </g>
</svg>
