<?xml version="1.0" encoding="UTF-8"?>
<!DOCTYPE svg PUBLIC "-//W3C//DTD SVG 1.1//EN" "http://www.w3.org/Graphics/SVG/1.1/DTD/svg11.dtd">
<!-- Creator: CorelDRAW -->
<svg xmlns="http://www.w3.org/2000/svg" xml:space="preserve" width="20px" height="55px" style="shape-rendering:geometricPrecision; text-rendering:geometricPrecision; image-rendering:optimizeQuality; fill-rule:evenodd; clip-rule:evenodd"
viewBox="0 0 21.1548 58.2132"
 xmlns:xlink="http://www.w3.org/1999/xlink">
 <defs>
  <style type="text/css">
   <![CDATA[
    .fil1 {fill:#32375C}
    .fil0 {fill:#C5C5C5}
   ]]>
  </style>
 </defs>
 <g id="Слой_x0020_1">
  <metadata id="CorelCorpID_0Corel-Layer"/>
  <g id="_431104760">
   <polygon id="_431104856" class="fil0" points="21.1548,49.1829 11.7262,40.1526 11.7262,46.5268 5.35194,46.5268 5.35194,51.8386 11.7262,51.839 11.7262,58.2132 "/>
   <path id="_431105816" class="fil0" d="M2.14495 54.9749l0 -11.584c0.0192732,-0.399518 0.18149,-1.12307 1.07288,-1.12307l5.34069 0 0 -2.11524 -5.34069 0c-2.31399,0 -3.19133,1.92291 -3.21783,3.21582l0 11.6286c0.0265007,1.29211 0.903835,3.21622 3.21783,3.21622l5.34069 0 0 -2.11403 -5.34069 -0.000401526c-0.891387,0 -1.05401,-0.725557 -1.07288,-1.12387z"/>
  </g>
  <g id="_275476520">
   <polygon id="_533115936" class="fil1" points="21.1548,9.03032 11.7262,0 11.7262,6.37422 5.35194,6.37422 5.35194,11.686 11.7262,11.6864 11.7262,18.0606 "/>
   <path id="_275476016" class="fil1" d="M2.14495 14.8223l0 -11.584c0.0192732,-0.399518 0.18149,-1.12307 1.07288,-1.12307l5.34069 0 0 -2.11524 -5.34069 0c-2.31399,0 -3.19133,1.92291 -3.21783,3.21582l0 11.6286c0.0265007,1.29211 0.903835,3.21622 3.21783,3.21622l5.34069 0 0 -2.11403 -5.34069 -0.000401526c-0.891387,0 -1.05401,-0.725557 -1.07288,-1.12387z"/>
  </g>
 </g>
</svg>
