<?xml version="1.0" encoding="UTF-8"?>
<!DOCTYPE svg PUBLIC "-//W3C//DTD SVG 1.1//EN" "http://www.w3.org/Graphics/SVG/1.1/DTD/svg11.dtd">
<!-- Creator: CorelDRAW -->
<svg xmlns="http://www.w3.org/2000/svg" xml:space="preserve" width="20px" height="55px" style="shape-rendering:geometricPrecision; text-rendering:geometricPrecision; image-rendering:optimizeQuality; fill-rule:evenodd; clip-rule:evenodd"
viewBox="0 0 20 55.7942"
 xmlns:xlink="http://www.w3.org/1999/xlink">
 <defs>
  <style type="text/css">
   <![CDATA[
    .fil1 {fill:#32425C}
    .fil0 {fill:#C5C5C5}
   ]]>
  </style>
 </defs>
 <g id="Слой_x0020_1">
  <metadata id="CorelCorpID_0Corel-Layer"/>
  <path class="fil0" d="M17.8809 51.96c-2.14407,-0.7351 -4.25602,-1.66597 -5.20692,-2.39011 -0.656865,-0.501153 -0.76987,-1.61797 -0.517026,-2.41506 1.11796,-0.902906 1.86402,-2.47704 1.86402,-4.27794 0,-2.80661 -1.80014,-5.08258 -4.02094,-5.08258 -2.22079,0 -4.02094,2.27597 -4.02094,5.08296 0,1.8009 0.74606,3.3739 1.86288,4.27681 0.252844,0.797838 0.140973,1.91504 -0.517026,2.41581 -0.950149,0.724139 -3.06285,1.65388 -5.20692,2.39011 -2.14407,0.736233 -2.11762,3.83423 -2.11762,3.83423l19.9992 0c0,0 0.0249443,-3.09876 -2.11913,-3.83386l0.000377943 -0.000377943z"/>
  <path class="fil1" d="M17.8809 14.1657c-2.14407,-0.7351 -4.25602,-1.66597 -5.20692,-2.39011 -0.656865,-0.501153 -0.76987,-1.61797 -0.517026,-2.41506 1.11796,-0.902906 1.86402,-2.47704 1.86402,-4.27794 0,-2.80661 -1.80014,-5.08258 -4.02094,-5.08258 -2.22079,0 -4.02094,2.27597 -4.02094,5.08296 0,1.8009 0.74606,3.3739 1.86288,4.27681 0.252844,0.797838 0.140973,1.91504 -0.517026,2.41581 -0.950149,0.724139 -3.06285,1.65388 -5.20692,2.39011 -2.14407,0.736233 -2.11762,3.83423 -2.11762,3.83423l19.9992 0c0,0 0.0249443,-3.09876 -2.11913,-3.83386l0.000377943 -0.000377943z"/>
 </g>
</svg>
